<svg id="svg8" xmlns="http://www.w3.org/2000/svg" xmlns:xlink="http://www.w3.org/1999/xlink" viewBox="0 0 213.51 262.5"><defs><style>.cls-1{fill:gray;}.cls-2{fill:url(#linear-gradient);}.cls-3{fill:url(#linear-gradient-2);}.cls-4{fill:url(#radial-gradient);}.cls-5{fill:url(#linear-gradient-3);}.cls-6{fill:#985b2f;}.cls-7{fill:#f29151;}.cls-8{fill:#fff;}</style><linearGradient id="linear-gradient" x1="466.12" y1="-698.99" x2="466.12" y2="-464.98" gradientTransform="translate(-398.33 765.07) scale(1.09)" gradientUnits="userSpaceOnUse"><stop offset="0" stop-color="#fff"/><stop offset="0.48" stop-color="#fdfdfd"/><stop offset="0.71" stop-color="#f5f6f6"/><stop offset="0.89" stop-color="#e9e9ea"/><stop offset="1" stop-color="#dbdcdd"/></linearGradient><linearGradient id="linear-gradient-2" x1="-2288.8" y1="647.18" x2="-2268.26" y2="626.64" gradientTransform="translate(-2321.9 750.17) rotate(180) scale(1.09)" gradientUnits="userSpaceOnUse"><stop offset="0" stop-color="#fff"/><stop offset="0.35" stop-color="#f2f3f3"/><stop offset="1" stop-color="#d0d2d3"/><stop offset="1" stop-color="#d0d2d3"/></linearGradient><radialGradient id="radial-gradient" cx="518.73" cy="-663.64" r="37.54" gradientTransform="translate(-398.33 765.07) scale(1.09)" gradientUnits="userSpaceOnUse"><stop offset="0" stop-color="#fff"/><stop offset="0.49" stop-color="#fdfdfd"/><stop offset="0.66" stop-color="#f6f7f7"/><stop offset="0.79" stop-color="#ebebec"/><stop offset="0.89" stop-color="#dadbdc"/><stop offset="0.97" stop-color="#c4c6c7"/><stop offset="1" stop-color="#bbbdbf"/></radialGradient><linearGradient id="linear-gradient-3" x1="419.31" y1="-419.16" x2="518.95" y2="-518.8" gradientTransform="translate(-398.33 765.07) scale(1.09)" gradientUnits="userSpaceOnUse"><stop offset="0" stop-color="#d0d2d3"/><stop offset="0.47" stop-color="#fff"/><stop offset="0.66" stop-color="#f2f3f3"/><stop offset="1" stop-color="#d0d2d3"/><stop offset="1" stop-color="#d0d2d3"/></linearGradient></defs><title>file</title><path class="cls-1" d="M7.48,0a7,7,0,0,0-7,7V254.2a7,7,0,0,0,7,7H205.06a7,7,0,0,0,7-7V84.8a19.51,19.51,0,0,0-4.95-12L139.24,5a19.49,19.49,0,0,0-12-5Z"/><path class="cls-2" d="M13.33,4.67a7,7,0,0,0-7,7V251.87a7,7,0,0,0,7,7h189.4a7,7,0,0,0,7-7V86a19.55,19.55,0,0,0-5-12L140.41,9.63a19.49,19.49,0,0,0-12-5Z"/><path class="cls-3" d="M139.2,23.28v35a13.37,13.37,0,0,0,13.36,13.37H189Z"/><path class="cls-4" d="M136.45,66.51,133.24,8.86h0l-5,65.82a7,7,0,0,0,7,7h63.76l-55.59-8.17A7,7,0,0,1,136.45,66.51Z"/><path class="cls-5" d="M6.31,258.87H209.74S131.18,241.35,6.31,258.87Z"/><path class="cls-6" d="M209.74,187.72a6.22,6.22,0,0,1-6.29,6.1H12.6a6.22,6.22,0,0,1-6.29-6.1V116.58a6.22,6.22,0,0,1,6.29-6.1H203.45a6.22,6.22,0,0,1,6.29,6.1Z"/><path class="cls-7" d="M209.74,191.3a6.22,6.22,0,0,1-6.29,6.1H12.6a6.22,6.22,0,0,1-6.29-6.1V120.17a6.21,6.21,0,0,1,6.29-6.1H203.45a6.21,6.21,0,0,1,6.29,6.1Z"/><path class="cls-8" d="M41.92,178V131.29H51L64,167.36l13.23-36.07H85.5V178H79.29v-38L66.45,174.82h-6.4L47.58,140v38Z"/><path class="cls-8" d="M97.5,178V131.29h12.7a31.13,31.13,0,0,1,8.46.9,9.91,9.91,0,0,1,4.87,3.17q2.49,3,2.49,8.16,0,7.46-5,11.67T107,159.41h-2.92V178Zm6.62-23.47h2.66c3.9,0,6.91-.9,9-2.72A9.62,9.62,0,0,0,119,144c0-2.79-.84-4.78-2.52-6s-4.46-1.81-8.34-1.81h-4Z"/><path class="cls-8" d="M133.73,177.62v-5.83q6.66,2.69,10.47,2.69a10.3,10.3,0,0,0,7.3-2.59,8.79,8.79,0,0,0,2.79-6.76q0-9.85-13.79-9.86h-2.45V151.1l2.17,0q12.89,0,12.89-9.13,0-7.17-8.56-7.17a24.21,24.21,0,0,0-10.2,2.63V132a33,33,0,0,1,10.6-1.85q6.95,0,10.67,2.78a9.42,9.42,0,0,1,3.71,8q0,8.22-9.7,11.73,11.28,2.63,11.27,12.36,0,6.6-4.34,10.35t-11.93,3.75A50.41,50.41,0,0,1,133.73,177.62Z"/></svg>