<svg id="svg8" xmlns="http://www.w3.org/2000/svg" xmlns:xlink="http://www.w3.org/1999/xlink" viewBox="0 0 213.51 262.5"><defs><style>.cls-1{fill:#41a5ee;}.cls-2{fill:#2b7cd3;}.cls-3{fill:#185abd;}.cls-4{fill:#103f91;}.cls-5{opacity:0.1;}.cls-5,.cls-6{isolation:isolate;}.cls-6{opacity:0.2;}.cls-7{fill:url(#linear-gradient);}.cls-8{fill:#fff;}</style><linearGradient id="linear-gradient" x1="22.27" y1="-1437.2" x2="105.93" y2="-1292.3" gradientTransform="translate(0 1496)" gradientUnits="userSpaceOnUse"><stop offset="0" stop-color="#2368c4"/><stop offset="0.5" stop-color="#1a5dbe"/><stop offset="1" stop-color="#1146ac"/></linearGradient></defs><title>file</title><path class="cls-1" d="M201.65-3.28H11.86A12.1,12.1,0,0,0,0,9.05H0V64L110,97.62,213.51,64V9.05A12.1,12.1,0,0,0,201.65-3.28Z"/><path class="cls-2" d="M213.51,64H0v67.27l110,20.18,103.52-20.18Z"/><path class="cls-3" d="M0,131.25v67.27L103.52,212l110-13.45V131.25Z"/><path class="cls-4" d="M11.86,265.78H201.65a12.1,12.1,0,0,0,11.86-12.33h0V198.52H0v54.93a12.1,12.1,0,0,0,11.86,12.33Z"/><path class="cls-5" d="M92.1,61.32H21.2V207H92.1a10.71,10.71,0,0,0,10.68-10.69V72A10.71,10.71,0,0,0,92.1,61.32Z"/><path class="cls-6" d="M86.28,67.15H21.2V212.83H86.28A10.72,10.72,0,0,0,97,202.15V77.83A10.72,10.72,0,0,0,86.28,67.15Z"/><path class="cls-6" d="M86.28,67.15H21.2v134H86.28A10.72,10.72,0,0,0,97,190.5V77.83A10.72,10.72,0,0,0,86.28,67.15Z"/><path class="cls-6" d="M80.45,67.15H21.2v134H80.45A10.72,10.72,0,0,0,91.13,190.5V77.83A10.72,10.72,0,0,0,80.45,67.15Z"/><path class="cls-7" d="M10.68,67.15H117.52A10.68,10.68,0,0,1,128.2,77.83V184.67a10.68,10.68,0,0,1-10.68,10.68H10.68A10.68,10.68,0,0,1,0,184.67V77.83A10.68,10.68,0,0,1,10.68,67.15Z"/><path class="cls-8" d="M43.8,149.07c.21,1.65.35,3.08.42,4.31h.24c.1-1.16.29-2.57.59-4.21s.56-3,.79-4.17L57.08,96.53H71.61l11.65,47.74a70.43,70.43,0,0,1,1.45,9h.2a68,68,0,0,1,1.21-8.74l9.29-48h13.22L92.31,166H76.86L65.79,120c-.32-1.32-.69-3.06-1.09-5.18s-.66-3.69-.76-4.66h-.19c-.13,1.13-.38,2.8-.75,5s-.67,3.87-.9,4.94L51.69,166H36L19.57,96.53H33L43.15,145.1C43.38,146.1,43.59,147.43,43.8,149.07Z"/></svg>