<svg id="svg8" xmlns="http://www.w3.org/2000/svg" xmlns:xlink="http://www.w3.org/1999/xlink" viewBox="0 0 213.51 262.5"><defs><style>.cls-1{fill:gray;}.cls-2{fill:url(#linear-gradient);}.cls-3{fill:url(#linear-gradient-2);}.cls-4{fill:url(#radial-gradient);}.cls-5{fill:url(#linear-gradient-3);}</style><linearGradient id="linear-gradient" x1="361.31" y1="-305.79" x2="361.31" y2="-69.67" gradientTransform="translate(-285.62 337.99) scale(1.09)" gradientUnits="userSpaceOnUse"><stop offset="0" stop-color="#fff"/><stop offset="0.48" stop-color="#fdfdfd"/><stop offset="0.71" stop-color="#f5f6f6"/><stop offset="0.89" stop-color="#e9e9ea"/><stop offset="1" stop-color="#dbdcdd"/></linearGradient><linearGradient id="linear-gradient-2" x1="-1250.44" y1="253.64" x2="-1229.72" y2="232.91" gradientTransform="translate(-1194.57 323.09) rotate(180) scale(1.09)" gradientUnits="userSpaceOnUse"><stop offset="0" stop-color="#fff"/><stop offset="0.35" stop-color="#f2f3f3"/><stop offset="1" stop-color="#d0d2d3"/><stop offset="1" stop-color="#d0d2d3"/></linearGradient><radialGradient id="radial-gradient" cx="414.4" cy="-270.12" r="37.88" gradientTransform="translate(-285.62 337.99) scale(1.09)" gradientUnits="userSpaceOnUse"><stop offset="0" stop-color="#fff"/><stop offset="0.49" stop-color="#fdfdfd"/><stop offset="0.66" stop-color="#f6f7f7"/><stop offset="0.79" stop-color="#ebebec"/><stop offset="0.89" stop-color="#dadbdc"/><stop offset="0.97" stop-color="#c4c6c7"/><stop offset="1" stop-color="#bbbdbf"/></radialGradient><linearGradient id="linear-gradient-3" x1="314.08" y1="-23.44" x2="414.62" y2="-123.98" gradientTransform="translate(-285.62 337.99) scale(1.09)" gradientUnits="userSpaceOnUse"><stop offset="0" stop-color="#d0d2d3"/><stop offset="0.47" stop-color="#fff"/><stop offset="0.66" stop-color="#f2f3f3"/><stop offset="1" stop-color="#d0d2d3"/><stop offset="1" stop-color="#d0d2d3"/></linearGradient></defs><title>file</title><path class="cls-1" d="M5.43,0A7.1,7.1,0,0,0-1.65,7.07V256.49a7.1,7.1,0,0,0,7.08,7.07H204.79a7.09,7.09,0,0,0,7.07-7.07V85.56a19.67,19.67,0,0,0-5-12.07L138.37,5A19.67,19.67,0,0,0,126.3,0Z"/><path class="cls-2" d="M11.32,4.71a7.1,7.1,0,0,0-7.08,7.07V254.14a7.1,7.1,0,0,0,7.08,7.07H202.43a7.1,7.1,0,0,0,7.08-7.07V86.74a19.73,19.73,0,0,0-5-12.08L139.55,9.71a19.73,19.73,0,0,0-12.07-5Z"/><path class="cls-3" d="M138.33,23.49V58.84a13.49,13.49,0,0,0,13.48,13.48h36.74Z"/><path class="cls-4" d="M135.56,67.1,132.31,8.94h0l-5,66.42a7.1,7.1,0,0,0,7.07,7.07h64.35l-56.1-8.25A7.1,7.1,0,0,1,135.56,67.1Z"/><path class="cls-5" d="M4.24,261.21H209.51S130.24,243.53,4.24,261.21Z"/><image width="2086" height="2048" transform="translate(0 63.98) scale(0.1 0.1)" xlink:href="powerpoint.png"/></svg>