<svg id="svg8" xmlns="http://www.w3.org/2000/svg" xmlns:xlink="http://www.w3.org/1999/xlink" viewBox="0 0 213.51 262.5"><defs><style>.cls-1{fill:gray;}.cls-2{fill:url(#linear-gradient);}.cls-3{fill:url(#linear-gradient-2);}.cls-4{fill:url(#radial-gradient);}.cls-5{fill:url(#linear-gradient-3);}.cls-6{fill:#ed6c47;}.cls-7{fill:#ff8f6b;}.cls-8{fill:#d35230;}.cls-9{fill-opacity:0.1;}.cls-10{fill-opacity:0.2;}.cls-11{fill:#c43e1c;}.cls-12{fill:#f9f7f7;}</style><linearGradient id="linear-gradient" x1="381.38" y1="-305.79" x2="381.38" y2="-69.67" gradientTransform="translate(-305.77 337.99) scale(1.09)" gradientUnits="userSpaceOnUse"><stop offset="0" stop-color="#fff"/><stop offset="0.48" stop-color="#fdfdfd"/><stop offset="0.71" stop-color="#f5f6f6"/><stop offset="0.89" stop-color="#e9e9ea"/><stop offset="1" stop-color="#dbdcdd"/></linearGradient><linearGradient id="linear-gradient-2" x1="-803.5" y1="253.64" x2="-782.77" y2="232.91" gradientTransform="translate(-707.4 323.09) rotate(180) scale(1.09)" gradientUnits="userSpaceOnUse"><stop offset="0" stop-color="#fff"/><stop offset="0.35" stop-color="#f2f3f3"/><stop offset="1" stop-color="#d0d2d3"/><stop offset="1" stop-color="#d0d2d3"/></linearGradient><radialGradient id="radial-gradient" cx="434.47" cy="-270.12" r="37.88" gradientTransform="translate(-305.77 337.99) scale(1.09)" gradientUnits="userSpaceOnUse"><stop offset="0" stop-color="#fff"/><stop offset="0.49" stop-color="#fdfdfd"/><stop offset="0.66" stop-color="#f6f7f7"/><stop offset="0.79" stop-color="#ebebec"/><stop offset="0.89" stop-color="#dadbdc"/><stop offset="0.97" stop-color="#c4c6c7"/><stop offset="1" stop-color="#bbbdbf"/></radialGradient><linearGradient id="linear-gradient-3" x1="334.14" y1="-23.44" x2="434.68" y2="-123.98" gradientTransform="translate(-305.77 337.99) scale(1.09)" gradientUnits="userSpaceOnUse"><stop offset="0" stop-color="#d0d2d3"/><stop offset="0.47" stop-color="#fff"/><stop offset="0.66" stop-color="#f2f3f3"/><stop offset="1" stop-color="#d0d2d3"/><stop offset="1" stop-color="#d0d2d3"/></linearGradient></defs><title>file</title><path class="cls-1" d="M7.07,0A7.09,7.09,0,0,0,0,7.07V256.49a7.09,7.09,0,0,0,7.07,7.07H206.43a7.09,7.09,0,0,0,7.08-7.07V85.56a19.67,19.67,0,0,0-5-12.07L140,5a19.7,19.7,0,0,0-12.08-5Z"/><path class="cls-2" d="M13,4.71a7.1,7.1,0,0,0-7.08,7.07V254.14A7.1,7.1,0,0,0,13,261.21H204.08a7.1,7.1,0,0,0,7.07-7.07V86.74a19.72,19.72,0,0,0-5-12.08l-65-64.95a19.76,19.76,0,0,0-12.08-5Z"/><path class="cls-3" d="M140,23.49V58.84a13.49,13.49,0,0,0,13.48,13.48H190.2Z"/><path class="cls-4" d="M137.21,67.1,134,8.94h0l-5,66.42A7.1,7.1,0,0,0,136,82.43h64.34l-56.09-8.25A7.1,7.1,0,0,1,137.21,67.1Z"/><path class="cls-5" d="M5.89,261.21H211.15S131.89,243.53,5.89,261.21Z"/><path class="cls-6" d="M112.71,84.17c-48,.14-87.52,39.63-87.66,87.67l111.06,23.4Z"/><path class="cls-7" d="M112.71,84.17c48,.14,87.52,39.63,87.66,87.67l-43.83,29.79-43.83-29.79Z"/><path class="cls-8" d="M112.71,259.5c48-.14,87.52-39.63,87.66-87.66H25.05C25.19,219.87,64.67,259.36,112.71,259.5Z"/><path class="cls-9" d="M104.36,115.48H45.74c-29.53,34.81-27,87.22,5.83,119h52.79a8.4,8.4,0,0,0,8.35-8.34V123.83a8.4,8.4,0,0,0-8.35-8.34Z"/><path class="cls-10" d="M98.1,121.74H40.94c-26.65,37.82-18.75,90.62,17.82,119H98.1a8.41,8.41,0,0,0,8.34-8.35V130.1a8.4,8.4,0,0,0-8.34-8.35Zm0,0H40.94a87.19,87.19,0,0,0,4.8,106.45H98.09a8.41,8.41,0,0,0,8.35-8.34V130.1a8.42,8.42,0,0,0-8.35-8.35Zm-6.27,0H40.94a87.19,87.19,0,0,0,4.8,106.45H91.83a8.4,8.4,0,0,0,8.34-8.34V130.1a8.4,8.4,0,0,0-8.34-8.35Z"/><path class="cls-11" d="M8.35,121.74H91.83a8.39,8.39,0,0,1,8.35,8.35v83.49a8.38,8.38,0,0,1-8.35,8.34H8.35A8.38,8.38,0,0,1,0,213.58V130.09A8.39,8.39,0,0,1,8.35,121.74Z"/><path class="cls-12" d="M50.07,140.53a26.1,26.1,0,0,1,17.26,5,18.06,18.06,0,0,1,6,14.6,17.06,17.06,0,0,1-3,9.93,19.73,19.73,0,0,1-8.42,7.43,28.41,28.41,0,0,1-12.64,2.65h-12v23H25.05V140.52ZM37.32,169.85H47.88a13.7,13.7,0,0,0,9.34-2.78,7,7,0,0,0,3.16-6.42q0-10.38-12.1-10.38h-11Z"/></svg>