<svg id="svg8" xmlns="http://www.w3.org/2000/svg" xmlns:xlink="http://www.w3.org/1999/xlink" viewBox="0 0 213.51 262.5"><defs><style>.cls-1{fill:gray;}.cls-2{fill:url(#linear-gradient);}.cls-3{fill:url(#linear-gradient-2);}.cls-4{fill:url(#radial-gradient);}.cls-5{fill:url(#linear-gradient-3);}.cls-6{fill:#971016;}.cls-7{fill:#d55a67;}.cls-8{fill:#fff;}</style><linearGradient id="linear-gradient" x1="343.14" y1="-699.94" x2="343.14" y2="-463.82" gradientTransform="translate(-264.23 766.15) scale(1.09)" gradientUnits="userSpaceOnUse"><stop offset="0" stop-color="#fff"/><stop offset="0.48" stop-color="#fdfdfd"/><stop offset="0.71" stop-color="#f5f6f6"/><stop offset="0.89" stop-color="#e9e9ea"/><stop offset="1" stop-color="#dbdcdd"/></linearGradient><linearGradient id="linear-gradient-2" x1="-1699.27" y1="647.79" x2="-1678.55" y2="627.06" gradientTransform="translate(-1680.49 751.26) rotate(180) scale(1.09)" gradientUnits="userSpaceOnUse"><stop offset="0" stop-color="#fff"/><stop offset="0.35" stop-color="#f2f3f3"/><stop offset="1" stop-color="#d0d2d3"/><stop offset="1" stop-color="#d0d2d3"/></linearGradient><radialGradient id="radial-gradient" cx="396.22" cy="-664.28" r="37.88" gradientTransform="translate(-264.23 766.15) scale(1.09)" gradientUnits="userSpaceOnUse"><stop offset="0" stop-color="#fff"/><stop offset="0.49" stop-color="#fdfdfd"/><stop offset="0.66" stop-color="#f6f7f7"/><stop offset="0.79" stop-color="#ebebec"/><stop offset="0.89" stop-color="#dadbdc"/><stop offset="0.97" stop-color="#c4c6c7"/><stop offset="1" stop-color="#bbbdbf"/></radialGradient><linearGradient id="linear-gradient-3" x1="295.9" y1="-417.59" x2="396.44" y2="-518.13" gradientTransform="translate(-264.23 766.15) scale(1.09)" gradientUnits="userSpaceOnUse"><stop offset="0" stop-color="#d0d2d3"/><stop offset="0.47" stop-color="#fff"/><stop offset="0.66" stop-color="#f2f3f3"/><stop offset="1" stop-color="#d0d2d3"/><stop offset="1" stop-color="#d0d2d3"/></linearGradient></defs><title>file</title><path class="cls-1" d="M7.07,0A7.1,7.1,0,0,0,0,7.07V256.49a7.1,7.1,0,0,0,7.07,7.07H206.44a7.09,7.09,0,0,0,7.07-7.07V85.57a19.67,19.67,0,0,0-5-12.08L140,5A19.67,19.67,0,0,0,128,0Z"/><path class="cls-2" d="M13,4.71a7.1,7.1,0,0,0-7.08,7.07V254.13A7.11,7.11,0,0,0,13,261.21H204.08a7.1,7.1,0,0,0,7.07-7.08V86.74a19.72,19.72,0,0,0-5-12.08l-65-64.95a19.75,19.75,0,0,0-12.07-5Z"/><path class="cls-3" d="M140,23.49V58.84a13.5,13.5,0,0,0,13.48,13.49H190.2Z"/><path class="cls-4" d="M137.21,67.1,134,8.94h0l-5,66.42A7.1,7.1,0,0,0,136,82.43h64.34l-56.09-8.25A7.1,7.1,0,0,1,137.21,67.1Z"/><path class="cls-5" d="M5.89,261.21H211.15S131.89,243.53,5.89,261.21Z"/><path class="cls-6" d="M211.15,189.41a6.27,6.27,0,0,1-6.34,6.15H12.24a6.27,6.27,0,0,1-6.35-6.15V117.63a6.27,6.27,0,0,1,6.35-6.15H204.81a6.27,6.27,0,0,1,6.34,6.15Z"/><path class="cls-7" d="M211.15,193a6.27,6.27,0,0,1-6.34,6.16H12.24A6.28,6.28,0,0,1,5.89,193V121.25a6.27,6.27,0,0,1,6.35-6.15H204.81a6.27,6.27,0,0,1,6.34,6.15Z"/><path class="cls-8" d="M49.09,185.25v-5.88a23.25,23.25,0,0,0,6.8,1.19q3.75,0,5.25-2.2c1-1.46,1.52-4,1.52-7.6V129.41h6.67v41.14q0,15.39-14.52,15.38A31.55,31.55,0,0,1,49.09,185.25Z"/><path class="cls-8" d="M81.21,176.49V129.41H94a30.75,30.75,0,0,1,8.53.91,9.91,9.91,0,0,1,4.92,3.19c1.68,2,2.51,4.76,2.51,8.24q0,7.5-5.07,11.77t-14.08,4.26h-3v18.71Zm6.67-23.68h2.68q5.91,0,9.13-2.75a9.71,9.71,0,0,0,3.22-7.81c0-2.82-.84-4.83-2.54-6s-4.5-1.83-8.41-1.83H87.88Z"/><path class="cls-8" d="M152.58,175.23a55.28,55.28,0,0,1-14.9,2.45q-11.2,0-17.2-6.39t-6-18.34q0-11.77,6.08-18.25t17.12-6.48a55.61,55.61,0,0,1,14.83,2.15v6.16q-9.72-3.33-14.91-3.33-7.63,0-11.85,5.17T121.55,153q0,9.33,4.51,14.53t12.65,5.2a25.07,25.07,0,0,0,7.2-1.18V156.16h6.67Z"/></svg>